<svg width="30" height="31" viewBox="0 0 30 31" fill="none" xmlns="http://www.w3.org/2000/svg">
<path d="M22.2783 13.0032H21.0596L18.2971 5.97503C18.1346 5.6094 17.7283 5.4469 17.3627 5.56878C16.9971 5.73128 16.8346 6.13753 16.9564 6.50315L19.5158 13.0438H4.44395L7.00332 6.50315C7.16582 6.13753 6.9627 5.73128 6.59707 5.56878C6.23145 5.40628 5.8252 5.6094 5.6627 5.97503L2.9002 13.0032H1.68145C1.07207 13.0032 0.543945 13.4907 0.543945 14.1407V17.5938C0.543945 18.2032 1.03145 18.7313 1.68145 18.7313H1.72207L2.77832 27.9938C2.94082 29.4157 4.15957 30.5125 5.62207 30.5125H18.2971C19.7596 30.5125 20.9783 29.4157 21.1408 27.9938L22.1971 18.7313H22.2377C22.8471 18.7313 23.3752 18.2438 23.3752 17.5938V14.1407C23.4158 13.5313 22.9283 13.0032 22.2783 13.0032ZM2.00645 14.425H21.9939V17.2688H2.00645V14.425ZM19.7596 27.7907C19.6783 28.5219 19.0689 29.05 18.3377 29.05H5.6627C4.93145 29.05 4.32207 28.5219 4.24082 27.7907L3.18457 18.6907H20.8158L19.7596 27.7907Z" fill="#212B36"/>
<path d="M7.73418 25.6375C8.14043 25.6375 8.46543 25.3125 8.46543 24.9062V21.7781C8.46543 21.3719 8.14043 21.0469 7.73418 21.0469C7.32793 21.0469 7.00293 21.3719 7.00293 21.7781V24.9062C7.00293 25.3125 7.32793 25.6375 7.73418 25.6375Z" fill="#212B36"/>
<path d="M16.2654 25.6375C16.6717 25.6375 16.9967 25.3125 16.9967 24.9062V21.7781C16.9967 21.3719 16.6717 21.0469 16.2654 21.0469C15.8592 21.0469 15.5342 21.3719 15.5342 21.7781V24.9062C15.5748 25.3125 15.8998 25.6375 16.2654 25.6375Z" fill="#212B36"/>
<circle cx="22" cy="8" r="8" fill="#3056D3"/>
<path d="M22.6406 4V12H21.6719V5.01562H21.625L19.6719 6.3125V5.32812L21.6719 4H22.6406Z" fill="white"/>
</svg>
